<?xml version="1.0" standalone="no"?>
<!DOCTYPE svg PUBLIC "-//W3C//DTD SVG 20010904//EN"
 "http://www.w3.org/TR/2001/REC-SVG-20010904/DTD/svg10.dtd">
<svg version="1.0" xmlns="http://www.w3.org/2000/svg"
 width="1707.000000pt" height="1707.000000pt" viewBox="0 0 1707.000000 1707.000000"
 preserveAspectRatio="xMidYMid meet">
<metadata>
Created by potrace 1.14, written by Peter Selinger 2001-2017
</metadata>
<g transform="translate(0.000000,1707.000000) scale(0.100000,-0.100000)"
fill="#000000" stroke="none">
<path d="M9028 17065 c-2 -2 -48 -5 -103 -9 -55 -3 -109 -8 -120 -10 -11 -2
-63 -7 -115 -11 -52 -3 -111 -8 -130 -10 -19 -2 -71 -6 -115 -10 -44 -3 -93
-8 -110 -10 -16 -2 -57 -7 -90 -10 -33 -3 -76 -8 -95 -11 -60 -8 -93 -13 -145
-20 -48 -6 -60 -8 -115 -18 -14 -3 -43 -8 -65 -11 -200 -28 -751 -153 -950
-215 -341 -107 -398 -126 -598 -201 -861 -321 -1677 -786 -2367 -1348 -334
-272 -718 -641 -1015 -975 -38 -44 -74 -84 -80 -90 -5 -6 -32 -38 -60 -71 -27
-33 -52 -62 -55 -65 -3 -3 -36 -43 -73 -90 -37 -47 -76 -94 -85 -105 -64 -73
-317 -422 -423 -585 -83 -126 -169 -260 -169 -264 0 -2 -88 -153 -120 -206
-88 -144 -313 -598 -400 -805 -34 -83 -42 -102 -50 -120 -10 -21 -66 -169
-102 -265 -11 -30 -24 -64 -28 -75 -30 -69 -191 -598 -204 -665 -2 -14 -13
-59 -24 -100 -11 -41 -27 -109 -36 -150 -9 -41 -19 -86 -22 -100 -3 -14 -7
-36 -10 -50 -2 -14 -7 -36 -10 -50 -10 -45 -14 -63 -43 -235 -16 -93 -32 -192
-35 -220 -4 -27 -13 -99 -21 -160 -8 -60 -17 -141 -20 -180 -3 -38 -8 -88 -10
-110 -3 -22 -7 -71 -10 -110 -3 -38 -8 -97 -10 -130 -3 -33 -7 -82 -10 -110
-2 -27 -7 -93 -12 -145 -10 -121 -10 -618 0 -730 5 -47 10 -105 12 -130 2 -25
7 -79 10 -120 5 -71 8 -106 20 -227 3 -29 7 -79 11 -110 14 -153 51 -423 79
-578 8 -44 17 -93 20 -110 3 -16 8 -41 11 -55 3 -14 8 -36 10 -50 76 -436 297
-1143 512 -1640 117 -271 295 -629 417 -839 10 -18 168 -282 188 -316 92 -153
352 -527 496 -715 63 -82 286 -354 319 -389 10 -10 51 -56 92 -102 249 -280
589 -604 865 -824 28 -22 52 -43 55 -46 21 -27 521 -394 626 -459 13 -8 88
-56 167 -106 78 -51 161 -102 182 -114 22 -12 65 -37 95 -55 175 -105 521
-283 770 -398 554 -254 1283 -491 1885 -613 113 -23 441 -82 495 -89 29 -4
104 -14 140 -20 31 -5 89 -12 160 -20 30 -3 71 -8 90 -10 19 -2 64 -7 100 -10
36 -3 81 -8 100 -10 19 -2 76 -7 125 -10 50 -3 122 -8 160 -11 39 -3 88 -7
110 -9 22 -1 92 -6 155 -11 147 -11 613 -11 795 0 203 13 208 13 350 20 72 4
150 9 175 11 76 6 201 15 275 20 39 3 93 7 120 10 118 13 260 28 370 41 22 2
58 7 80 11 22 3 51 7 65 8 14 2 45 6 70 9 25 4 88 14 140 22 111 16 282 46
395 69 44 9 94 19 110 21 28 5 158 33 180 38 6 2 28 6 50 11 76 15 510 124
640 160 72 20 153 42 180 50 61 16 256 73 390 115 55 18 136 43 180 56 44 13
87 27 95 31 18 7 14 6 69 22 174 50 974 328 1231 428 480 186 732 315 976 495
l112 83 4 70 c2 39 5 1956 6 4262 l3 4192 -3668 -4 c-2017 -2 -3683 -5 -3701
-8 -18 -3 -35 -7 -38 -9 -2 -3 -27 -70 -55 -149 -96 -270 -158 -444 -210 -589
-28 -80 -64 -181 -80 -225 -15 -44 -35 -100 -44 -125 -9 -25 -41 -112 -70
-195 -29 -82 -65 -181 -79 -220 -14 -38 -26 -71 -26 -72 0 -2 -3 -8 -5 -15 -3
-7 -13 -38 -24 -68 -10 -30 -42 -120 -71 -200 -28 -80 -78 -219 -110 -310 -32
-91 -82 -230 -110 -310 -29 -80 -58 -163 -65 -185 -8 -22 -35 -98 -60 -170
-77 -212 -136 -378 -145 -410 -6 -16 -14 -39 -19 -50 -5 -11 -26 -67 -45 -125
-20 -58 -52 -150 -71 -205 -19 -55 -35 -102 -35 -105 0 -10 769 -14 3715 -19
l420 -1 0 -960 0 -959 -125 -30 c-69 -17 -192 -44 -275 -60 -163 -33 -371 -69
-480 -86 -22 -3 -47 -7 -55 -10 -8 -2 -31 -6 -50 -9 -85 -11 -135 -18 -141
-22 -3 -1 -28 -6 -55 -9 -27 -3 -89 -12 -139 -20 -107 -17 -141 -22 -220 -31
-33 -3 -69 -8 -80 -10 -122 -24 -756 -24 -895 0 -14 3 -52 7 -84 10 -33 3 -85
10 -115 15 -31 6 -74 13 -96 16 -60 8 -195 34 -235 45 -19 5 -50 12 -69 15
-19 3 -38 8 -43 11 -5 3 -21 8 -36 10 -38 7 -149 40 -267 79 -816 271 -1570
797 -2060 1435 -57 74 -212 308 -264 397 -170 294 -313 653 -399 1003 -48 193
-81 365 -96 505 -4 33 -9 69 -11 80 -2 11 -7 52 -10 90 -4 39 -8 86 -10 105
-11 99 -18 328 -18 520 1 286 8 392 50 680 20 145 81 379 153 592 188 553 448
1017 830 1478 105 127 389 416 490 499 36 30 67 57 70 60 3 4 55 46 116 93
435 336 877 565 1349 697 61 17 121 34 135 37 83 17 180 36 209 40 19 2 46 6
60 9 191 32 825 26 1101 -10 25 -3 61 -8 80 -10 63 -6 180 -25 253 -40 40 -8
83 -16 97 -19 20 -3 145 -33 220 -51 349 -87 830 -266 1135 -425 291 -150 662
-403 879 -599 75 -67 301 -296 386 -390 113 -125 122 -135 141 -149 21 -15 53
24 1038 1253 105 132 202 253 214 269 12 16 27 34 32 40 6 6 71 88 145 181 74
94 140 177 147 185 43 53 585 736 658 830 49 63 92 117 95 120 3 3 21 25 40
50 19 25 41 52 47 60 30 36 229 291 280 358 l56 73 -34 36 c-34 36 -103 102
-142 136 -22 18 -50 42 -192 162 -700 592 -1474 1066 -2333 1432 -95 40 -178
73 -185 73 -7 0 -17 4 -22 9 -10 9 -54 25 -295 111 -74 26 -142 50 -150 53
-39 14 -243 76 -415 126 -173 50 -630 158 -785 185 -14 2 -36 7 -50 10 -14 3
-41 8 -60 11 -19 2 -62 9 -95 15 -69 13 -174 29 -225 36 -19 2 -46 6 -60 9
-35 6 -107 16 -230 29 -30 4 -77 9 -104 12 -27 3 -56 7 -65 9 -9 1 -56 6 -106
10 -49 3 -106 8 -125 10 -19 2 -78 7 -130 10 -52 3 -111 8 -130 10 -19 2 -84
7 -145 10 -60 4 -126 9 -145 11 -36 4 -638 13 -642 9z"/>
</g>
</svg>
